<svg width="872" height="572" viewBox="0 0 872 572" fill="none" xmlns="http://www.w3.org/2000/svg">
<path d="M734.961 266.836V306.289H756.836V335.293H734.961V372.109C734.961 376.536 735.384 379.466 736.23 380.898C737.533 383.112 739.811 384.219 743.066 384.219C745.996 384.219 750.098 383.372 755.371 381.68L758.301 409.121C748.47 411.27 739.29 412.344 730.762 412.344C720.866 412.344 713.574 411.074 708.887 408.535C704.199 405.996 700.716 402.155 698.438 397.012C696.224 391.803 695.117 383.405 695.117 371.816V335.293H680.469V306.289H695.117V287.246L734.961 266.836Z" fill="url(#paint0_linear_58_72)"/>
<path d="M582.917 416H481.394C470.041 325.466 455.704 246.867 438.383 180.204C446.825 163.029 454.03 147.309 459.998 133.045C461.017 130.862 463.637 127.951 467.858 124.312C472.224 120.673 475.936 118.853 478.992 118.853H548.421C554.389 162.81 562.394 211.789 572.437 265.789C582.626 319.644 592.524 364.911 602.13 401.59C602.13 403.482 599.801 406.393 595.144 410.323C590.486 414.108 586.411 416 582.917 416ZM408.472 377.356L409.127 401.59C409.127 403.482 406.725 406.393 401.922 410.323C397.264 414.108 393.262 416 389.914 416H320.267C343.264 376.992 378.925 305.525 427.248 201.6C428.558 205.385 429.213 210.697 429.213 217.538C429.213 224.234 428.194 233.986 426.157 246.795C424.264 259.603 421.79 274.741 418.733 292.207C415.677 309.528 413.421 323.574 411.965 334.345C432.925 337.547 448.135 341.113 457.596 345.043C457.596 353.776 456.141 360.253 453.23 364.474C438.092 365.784 423.173 367.749 408.472 370.369V377.356Z" fill="url(#paint1_linear_58_72)"/>
<path d="M127.148 368.008H47.4609C48.1771 374.388 49.9023 379.141 52.6367 382.266C56.4779 386.758 61.4909 389.004 67.6758 389.004C71.582 389.004 75.293 388.027 78.8086 386.074C80.957 384.837 83.2682 382.656 85.7422 379.531L124.902 383.145C118.913 393.561 111.686 401.048 103.223 405.605C94.7591 410.098 82.6172 412.344 66.7969 412.344C53.0599 412.344 42.2526 410.423 34.375 406.582C26.4974 402.676 19.9544 396.523 14.7461 388.125C9.60286 379.661 7.03125 369.733 7.03125 358.34C7.03125 342.129 12.207 329.01 22.5586 318.984C32.9753 308.958 47.3307 303.945 65.625 303.945C80.4688 303.945 92.1875 306.191 100.781 310.684C109.375 315.176 115.918 321.686 120.41 330.215C124.902 338.743 127.148 349.844 127.148 363.516V368.008ZM86.7188 348.965C85.9375 341.283 83.8542 335.781 80.4688 332.461C77.1484 329.141 72.7539 327.48 67.2852 327.48C60.9701 327.48 55.9245 329.987 52.1484 335C49.7396 338.125 48.2096 342.78 47.5586 348.965H86.7188Z" fill="url(#paint2_linear_58_72)"/>
<path d="M285.148 368.008H205.461C206.177 374.388 207.902 379.141 210.637 382.266C214.478 386.758 219.491 389.004 225.676 389.004C229.582 389.004 233.293 388.027 236.809 386.074C238.957 384.837 241.268 382.656 243.742 379.531L282.902 383.145C276.913 393.561 269.686 401.048 261.223 405.605C252.759 410.098 240.617 412.344 224.797 412.344C211.06 412.344 200.253 410.423 192.375 406.582C184.497 402.676 177.954 396.523 172.746 388.125C167.603 379.661 165.031 369.733 165.031 358.34C165.031 342.129 170.207 329.01 180.559 318.984C190.975 308.958 205.331 303.945 223.625 303.945C238.469 303.945 250.188 306.191 258.781 310.684C267.375 315.176 273.918 321.686 278.41 330.215C282.902 338.743 285.148 349.844 285.148 363.516V368.008ZM244.719 348.965C243.938 341.283 241.854 335.781 238.469 332.461C235.148 329.141 230.754 327.48 225.285 327.48C218.97 327.48 213.924 329.987 210.148 335C207.74 338.125 206.21 342.78 205.559 348.965H244.719Z" fill="url(#paint3_linear_58_72)"/>
<path d="M866.148 368.008H786.461C787.177 374.388 788.902 379.141 791.637 382.266C795.478 386.758 800.491 389.004 806.676 389.004C810.582 389.004 814.293 388.027 817.809 386.074C819.957 384.837 822.268 382.656 824.742 379.531L863.902 383.145C857.913 393.561 850.686 401.048 842.223 405.605C833.759 410.098 821.617 412.344 805.797 412.344C792.06 412.344 781.253 410.423 773.375 406.582C765.497 402.676 758.954 396.523 753.746 388.125C748.603 379.661 746.031 369.733 746.031 358.34C746.031 342.129 751.207 329.01 761.559 318.984C771.975 308.958 786.331 303.945 804.625 303.945C819.469 303.945 831.188 306.191 839.781 310.684C848.375 315.176 854.918 321.686 859.41 330.215C863.902 338.743 866.148 349.844 866.148 363.516V368.008ZM825.719 348.965C824.938 341.283 822.854 335.781 819.469 332.461C816.148 329.141 811.754 327.48 806.285 327.48C799.97 327.48 794.924 329.987 791.148 335C788.74 338.125 787.21 342.78 786.559 348.965H825.719Z" fill="url(#paint4_linear_58_72)"/>
<path d="M259.195 306.289H300.602L320.719 372.012L341.52 306.289H381.656L337.613 410H302.359L259.195 306.289Z" fill="url(#paint5_linear_58_72)"/>
<path d="M125.379 266.836H165.223V410H125.379V266.836Z" fill="url(#paint6_linear_58_72)"/>
<path d="M649.243 451H547.72C567.806 364.105 581.997 269.786 590.294 168.045C590.294 166.153 592.623 163.314 597.281 159.53C602.084 155.746 606.159 153.853 609.507 153.853H711.03C690.798 240.021 676.534 334.266 668.238 436.59C668.238 438.482 665.909 441.393 661.251 445.323C656.593 449.108 652.591 451 649.243 451Z" fill="url(#paint7_linear_58_72)"/>
<defs>
<linearGradient id="paint0_linear_58_72" x1="681.614" y1="357.667" x2="748.855" y2="358.031" gradientUnits="userSpaceOnUse">
<stop stop-color="white"/>
<stop offset="1" stop-color="white" stop-opacity="0.13"/>
</linearGradient>
<linearGradient id="paint1_linear_58_72" x1="403.752" y1="108.146" x2="393.479" y2="415.549" gradientUnits="userSpaceOnUse">
<stop stop-color="#62EEF1"/>
<stop offset="1" stop-color="#00FBFF" stop-opacity="0"/>
</linearGradient>
<linearGradient id="paint2_linear_58_72" x1="9.20455" y1="357.667" x2="102.785" y2="358.373" gradientUnits="userSpaceOnUse">
<stop stop-color="white"/>
<stop offset="1" stop-color="white" stop-opacity="0.13"/>
</linearGradient>
<linearGradient id="paint3_linear_58_72" x1="167.136" y1="357.667" x2="260.024" y2="358.362" gradientUnits="userSpaceOnUse">
<stop stop-color="white"/>
<stop offset="1" stop-color="white" stop-opacity="0.13"/>
</linearGradient>
<linearGradient id="paint4_linear_58_72" x1="748.068" y1="357.667" x2="840.262" y2="358.352" gradientUnits="userSpaceOnUse">
<stop stop-color="white"/>
<stop offset="1" stop-color="white" stop-opacity="0.13"/>
</linearGradient>
<linearGradient id="paint5_linear_58_72" x1="268.477" y1="357.667" x2="364.83" y2="358.415" gradientUnits="userSpaceOnUse">
<stop stop-color="white"/>
<stop offset="1" stop-color="white" stop-opacity="0.13"/>
</linearGradient>
<linearGradient id="paint6_linear_58_72" x1="115.614" y1="357.667" x2="152.354" y2="357.775" gradientUnits="userSpaceOnUse">
<stop stop-color="white"/>
<stop offset="1" stop-color="white" stop-opacity="0.13"/>
</linearGradient>
<linearGradient id="paint7_linear_58_72" x1="621.152" y1="170" x2="596.134" y2="449.982" gradientUnits="userSpaceOnUse">
<stop stop-color="#62EEF1"/>
<stop offset="1" stop-color="#62EDEF" stop-opacity="0"/>
</linearGradient>
</defs>
</svg>
